<svg xmlns="http://www.w3.org/2000/svg" viewBox="0 0 64 64">
  <rect width="64" height="64" rx="14" fill="#1e3a8a"/>
  <path d="M14 28h36v22a3 3 0 0 1-3 3H17a3 3 0 0 1-3-3V28Z" fill="#ffffff"/>
  <path d="M19 12h26l7 16H12l7-16Z" fill="#ea580c"/>
  <path d="M12 28h40v5c0 3.3-2.7 6-6 6-2.4 0-4.5-1.4-5.5-3.5A6.1 6.1 0 0 1 35 39a6.1 6.1 0 0 1-5.5-3.5A6.1 6.1 0 0 1 24 39c-2.4 0-4.5-1.4-5.5-3.5A6.1 6.1 0 0 1 13 39h-1V28Z" fill="#f97316"/>
  <path d="M24 53V40h16v13H24Z" fill="#1e3a8a"/>
  <path d="M20 16h24l3.5 8h-31L20 16Z" fill="#ffffff" opacity=".92"/>
  <circle cx="37" cy="46" r="1.5" fill="#ffffff"/>
</svg>
